<?xml version="1.0" encoding="utf-8"?>
<svg version="1.1" xmlns="http://www.w3.org/2000/svg" xmlns:xlink="http://www.w3.org/1999/xlink" 
  viewBox="0 0 100 100" style="enable-background:new 0 0 100 100;" xml:space="preserve">
  <defs>
    <style type="text/css">
      .sunburst { fill: #FF6B35; }
    </style>
  </defs>
  <!-- Orange sunburst logo with 12 radiating segments - transparent background -->
  <g>
    <!-- Top segment (pointed) -->
    <path class="sunburst" d="M50,5 L47,20 L53,20 Z"/>
    <!-- Top-right segments -->
    <path class="sunburst" d="M53,20 L60,15 L65,25 L58,30 Z"/>
    <path class="sunburst" d="M58,30 L65,25 L70,35 L63,40 Z"/>
    <!-- Right segment -->
    <path class="sunburst" d="M95,50 L80,45 L80,55 Z"/>
    <!-- Bottom-right segments -->
    <path class="sunburst" d="M80,55 L80,45 L70,55 L75,65 Z"/>
    <path class="sunburst" d="M70,55 L63,65 L70,70 L77,60 Z"/>
    <!-- Bottom segment -->
    <path class="sunburst" d="M50,95 L47,80 L53,80 Z"/>
    <!-- Bottom-left segments -->
    <path class="sunburst" d="M47,80 L40,75 L30,85 L37,90 Z"/>
    <path class="sunburst" d="M37,70 L30,75 L25,65 L32,60 Z"/>
    <!-- Left segment -->
    <path class="sunburst" d="M5,50 L20,55 L20,45 Z"/>
    <!-- Top-left segments -->
    <path class="sunburst" d="M20,45 L20,55 L30,40 L25,30 Z"/>
    <path class="sunburst" d="M30,40 L37,30 L30,25 L23,35 Z"/>
  </g>
</svg>
